<svg width="28" height="27" viewBox="0 0 28 27" fill="none" xmlns="http://www.w3.org/2000/svg">
<path d="M27.3334 14.0109C27.3291 19.7475 23.656 24.8382 18.2134 26.6509C18.0097 26.7137 17.7884 26.6793 17.6134 26.5576C17.4384 26.4303 17.3345 26.2273 17.3334 26.0109V22.4509C17.3623 21.4921 17.132 20.5432 16.6668 19.7043C16.5964 19.5946 16.5964 19.454 16.6668 19.3443C16.7208 19.2431 16.8199 19.1738 16.9334 19.1576C20.1868 18.8243 22.0001 17.5309 22.0001 14.0109C22.0785 12.3674 21.5088 10.7587 20.4134 9.53094C20.5732 9.01228 20.6585 8.47357 20.6668 7.93094C20.661 7.44443 20.5938 6.96059 20.4668 6.49094C20.3829 6.17777 20.0821 5.97345 19.7601 6.01094C18.5384 6.18434 17.4012 6.7343 16.5068 7.58427C14.851 7.26435 13.1492 7.26435 11.4934 7.58427C10.599 6.7343 9.46175 6.18434 8.24009 6.01094C7.91807 5.97345 7.61726 6.17777 7.53342 6.49094C7.40635 6.96059 7.33915 7.44443 7.33342 7.93094C7.34172 8.47357 7.42701 9.01228 7.58676 9.53094C6.4914 10.7587 5.92166 12.3674 6.00009 14.0109C6.00009 17.7176 8.01342 18.9576 11.7068 19.2643C11.2483 19.8651 10.9336 20.5629 10.7868 21.3043C10.7868 21.3043 10.7868 21.3976 10.7868 21.4643C10.7803 21.5263 10.7803 21.5889 10.7868 21.6509C10.7313 22.0701 10.3544 22.3704 9.93342 22.3309C9.7327 22.3215 9.5367 22.2668 9.36009 22.1709C8.6337 21.7285 7.99246 21.1595 7.46676 20.4909C7.13181 20.1112 6.77569 19.7506 6.40009 19.4109C6.16143 19.2043 5.89701 19.0296 5.61342 18.8909C5.4147 18.7793 5.17215 18.7793 4.97342 18.8909C4.78265 19.0133 4.66714 19.2243 4.66676 19.4509V19.5309C4.66714 19.7576 4.78265 19.9685 4.97342 20.0909C5.45205 20.4916 5.86583 20.9638 6.20009 21.4909C6.7646 22.3755 7.48253 23.1521 8.32009 23.7843C8.87193 24.1542 9.52241 24.3494 10.1868 24.3443H10.6668V26.0109C10.6657 26.2273 10.5618 26.4303 10.3868 26.5576C10.2117 26.6793 9.99047 26.7137 9.78676 26.6509C3.32282 24.498 -0.478253 17.8183 0.972588 11.1615C2.42343 4.5047 8.65942 0.0125172 15.433 0.744704C22.2066 1.47689 27.3386 7.1979 27.3334 14.0109Z" fill="white"/>
</svg>
