<svg width="24" height="23" viewBox="0 0 24 23" fill="none" xmlns="http://www.w3.org/2000/svg">
<path d="M6.00008 8.66667V22C6.00008 22.3682 5.7016 22.6667 5.33342 22.6667H2.00008C1.63189 22.6667 1.33341 22.3682 1.33341 22V8.66667C1.33341 8.29848 1.63189 8 2.00008 8H5.33342C5.7016 8 6.00008 8.29848 6.00008 8.66667ZM24.0001 13.88C24.046 10.9932 22.0766 8.4635 19.2668 7.8C17.3837 7.39454 15.421 7.92622 14.0001 9.22667V8.66667C14.0001 8.29848 13.7016 8 13.3334 8H10.0001C9.63189 8 9.33342 8.29848 9.33342 8.66667V22C9.33342 22.3682 9.63189 22.6667 10.0001 22.6667H13.3334C13.7016 22.6667 14.0001 22.3682 14.0001 22V14.48C13.9672 13.141 14.9004 11.9716 16.2134 11.7067C16.9952 11.5717 17.7965 11.7919 18.3996 12.3073C19.0027 12.8228 19.345 13.58 19.3334 14.3733V22C19.3334 22.3682 19.6319 22.6667 20.0001 22.6667H23.3334C23.7016 22.6667 24.0001 22.3682 24.0001 22V13.88ZM3.33341 0C1.86066 0 0.666748 1.19391 0.666748 2.66667C0.666748 4.13943 1.86066 5.33333 3.33341 5.33333C4.80617 5.33333 6.00008 4.13943 6.00008 2.66667C6.00008 1.95942 5.71913 1.28115 5.21903 0.781048C4.71894 0.280951 4.04066 0 3.33341 0Z" fill="white"/>
</svg>
