<svg width="34" height="42" viewBox="0 0 34 42" fill="none" xmlns="http://www.w3.org/2000/svg">
    <path d="M33.9528 10.4504L25.761 5.52932L17.5692 0.608201C17.3383 0.463933 17.0303 0.463933 16.7993 0.608201L0.400351 10.4665C0.153981 10.6107 0.0153981 10.8672 0.0153981 11.1558L0 30.8563C0 31.1448 0.153981 31.4013 0.384953 31.5455L16.7839 41.3878C16.9071 41.4519 17.0303 41.5 17.1689 41.5C17.3075 41.5 17.4307 41.4679 17.5538 41.3878L33.9528 31.5295C34.1838 31.3853 34.3378 31.1288 34.3378 30.8402V11.1397C34.3378 10.8512 34.1992 10.5947 33.9528 10.4504ZM26.146 25.4703V16.5417L32.798 12.5343V29.4617L26.146 25.4703ZM8.20719 16.5417V25.4703L1.53981 29.4777L1.55521 12.5343L8.20719 16.5417ZM32.0281 11.1397L9.74701 24.5406V16.5417L25.3761 7.14832L32.0281 11.1397ZM17.1843 2.2272L23.8363 6.2186L8.9771 15.1472L2.32512 11.1397L17.1843 2.2272ZM2.30972 30.8563L24.6062 17.4554V25.4543L8.9617 34.8637L2.30972 30.8563ZM17.1689 39.7848L10.5015 35.7774L25.3607 26.8488L32.0281 30.8563L17.1689 39.7848Z" fill="white"></path>
</svg>